<svg id="SvgjsSvg1012" width="288" height="288" xmlns="http://www.w3.org/2000/svg" version="1.1" xmlns:xlink="http://www.w3.org/1999/xlink" xmlns:svgjs="http://svgjs.com/svgjs"><defs id="SvgjsDefs1013"></defs><g id="SvgjsG1014" transform="matrix(0.9167,0,0,0.9167,11.995200000000011,11.995200000000011)"><svg xmlns="http://www.w3.org/2000/svg" width="288" height="288" viewBox="0 0 512 512"><path d="M354.676 366.898l-98.608 28.125-98.458-28.248L150.864 289h48.253l3.433 39.563 53.586 15.163.132.273h.034l53.467-14.852L315.381 265H203l-4-50h120.646l4.396-51H140l-4-49h240.58l-21.904 251.898z" fill="#b31212" class="color000 svgShape"></path><path d="M64 32l34.936 403.301L255.769 480l157.245-44.705L448 32H64zm319.041 378.51l-127.262 36.187-126.867-36.169L98.896 64H413.1l-30.059 346.51z" fill="#b31212" class="color000 svgShape"></path></svg></g></svg>