<svg id="SvgjsSvg1001" width="288" height="288" xmlns="http://www.w3.org/2000/svg" version="1.1" xmlns:xlink="http://www.w3.org/1999/xlink" xmlns:svgjs="http://svgjs.com/svgjs"><defs id="SvgjsDefs1002"></defs><g id="SvgjsG1008" transform="matrix(0.9167,0,0,0.9167,11.994449281883249,11.995199985104819)"><svg xmlns="http://www.w3.org/2000/svg" enable-background="new 0 0 24 24" viewBox="0 0 24 24" width="288" height="288"><path d="M5.948,24c-1.187,0-2.309-0.354-3.256-1.023c-1.772-1.22-2.509-3.345-2.069-5.979c0.215-1.28,0.76-2.395,1.241-3.378L2,13.341c0.123-0.248,0.434-0.37,0.681-0.246c0.247,0.123,0.358,0.402,0.235,0.649c0,0-0.021,0.042-0.021,0.042l-0.122,0.249c-0.462,0.945-0.973,1.99-1.164,3.127c-0.373,2.229,0.215,4.003,1.655,4.994C4.046,22.709,4.97,23,5.939,23c1.743,0,3.555-0.893,5.308-1.756l0.095-0.046c1.281-0.628,2.606-1.277,3.937-1.603c0.471-0.115,0.945-0.183,1.447-0.256l0.12-0.017c1.031-0.146,2.095-0.297,3.016-0.828c1.028-0.592,1.74-1.584,1.955-2.722c0.155-0.884,0.016-1.768-0.398-2.578c-0.08-0.156-0.072-0.343,0.021-0.493c0.257-0.411,0.393-0.889,0.393-1.382c0-0.013,0-0.026,0.001-0.039c-0.021-1.163-0.819-2.18-1.953-2.481c-0.137-0.037-0.264-0.132-0.328-0.259S19.47,8.263,19.521,8.13L22.271,1H8.801l2.758,7.158c0.05,0.13,0.043,0.275-0.018,0.4c-0.062,0.125-0.173,0.219-0.307,0.259c-1.137,0.337-1.903,1.346-1.904,2.509c0,0.836,0.417,1.632,1.114,2.128c0.108,0.077,0.182,0.194,0.203,0.326c0.022,0.131-0.01,0.266-0.087,0.374c-0.348,0.484-0.725,0.914-1.153,1.313c-0.78,0.739-1.679,1.319-2.671,1.728c-0.155,0.063-0.385,0.064-0.523-0.027c-1.032-0.691-1.471-1.939-1.067-3.035c0.096-0.258,0.385-0.39,0.643-0.296c0.259,0.096,0.391,0.383,0.296,0.643c-0.22,0.596-0.027,1.251,0.479,1.698c0.813-0.363,1.528-0.842,2.155-1.436c0.271-0.253,0.518-0.518,0.748-0.801c-0.718-0.681-1.135-1.627-1.135-2.615c0.002-1.43,0.833-2.689,2.115-3.278L7.606,0.68C7.547,0.526,7.567,0.353,7.661,0.217C7.754,0.081,7.908,0,8.073,0H23c0.165,0,0.319,0.081,0.412,0.217c0.093,0.136,0.114,0.309,0.054,0.462l-2.827,7.331c1.325,0.577,2.192,1.866,2.195,3.309c0,0.017-0.001,0.033-0.002,0.049c-0.007,0.568-0.146,1.122-0.404,1.618c0.42,0.937,0.551,1.947,0.376,2.937c-0.273,1.459-1.162,2.7-2.442,3.438c-1.088,0.628-2.302,0.8-3.373,0.952l-0.119,0.017c-0.478,0.069-0.929,0.134-1.353,0.238c-1.225,0.299-2.5,0.924-3.734,1.529l-0.094,0.046C9.833,23.055,7.916,24,5.948,24z" fill="#b31212" class="color000 svgShape"></path><path d="M18.203 8.88c-.185 0-.362-.102-.449-.278l-2.215-4.482-2.221 4.449c-.123.248-.421.35-.67.224-.247-.123-.348-.423-.224-.67l2.67-5.35c.085-.17.293-.301.448-.277.19 0 .363.108.447.278l2.661 5.385c.123.248.021.547-.227.67C18.353 8.863 18.277 8.88 18.203 8.88zM16.128 11.215h-1.093c-.276 0-.5-.224-.5-.5s.224-.5.5-.5h1.093c.276 0 .5.224.5.5S16.405 11.215 16.128 11.215z" fill="#b31212" class="color000 svgShape"></path><path d="M11.961 14.744c-1.917 0-3.472-1.49-3.539-3.392 0-.006 0-.017 0-.023v-.008c0-1.6 1.088-2.994 2.647-3.39.117-.027.168-.039.229-.049.013-.002.034-.004.055-.005.025-.004.049-.008.073-.012.04-.01.094-.016.135-.016.087-.007.131-.012.18-.012h.471c.026 0 .121.009.146.013.073 0 .18.027.246.058-.012-.018.039-.018.114.009l.124.025c.098.024.164.043.22.065.015.003.029.008.043.013.047.014.104.032.165.061.018.007.036.014.054.022l.061.025c.02.005.04.011.058.018.066.026.128.057.188.093.008.003.017.007.025.011.011.005.095.053.105.06L13.76 8.315c.022.009.045.019.066.031.046.023.088.051.129.08.046.024.094.06.131.097.112.079.257.208.399.337.669.697 1.014 1.555 1.014 2.458C15.433 13.252 13.878 14.744 11.961 14.744zM11.612 8.849c-.011.002-.032.005-.052.007-.043.012-.099.019-.144.019-.003 0-.103.024-.106.024-1.11.284-1.888 1.279-1.888 2.421v.014c.048 1.343 1.163 2.41 2.539 2.41s2.491-1.068 2.54-2.433c0-.639-.247-1.251-.695-1.72-.107-.096-.228-.205-.358-.301l-.083-.057c-.003-.002-.006-.003-.009-.005-.001-.001-.003-.001-.005-.002L13.25 9.168c-.044-.016-.087-.039-.126-.068l.001-.005c-.033-.008-.065-.02-.094-.034-.05-.019-.084-.032-.115-.046-.029-.01-.057-.021-.083-.036-.018-.004-.036-.008-.053-.013-.037-.009-.072-.022-.106-.04l-.197-.039c-.016-.003-.032-.007-.047-.012-.008-.001-.016-.003-.023-.005-.018-.002-.116-.02-.133-.024-.003-.001-.005-.001-.008-.002-.025-.002-.049-.005-.06-.006l-.462-.001C11.706 8.844 11.662 8.849 11.612 8.849zM12.309 8.848c.01.001.02.001.03.001C12.332 8.849 12.321 8.849 12.309 8.848zM19.206 14.744c-1.917 0-3.472-1.49-3.539-3.392 0-.006 0-.017 0-.023v-.008c0-1.6 1.088-2.994 2.647-3.39.119-.028.169-.039.229-.049.013-.002.034-.004.055-.005.025-.004.049-.008.073-.011.04-.01.094-.017.135-.017.088-.007.132-.012.181-.012h.47c.026 0 .121.009.146.013.046 0 .107.011.163.027.012.002.034.006.057.01.039.003.086.011.14.029l.125.025c.099.024.164.043.22.065.015.003.029.008.043.013.047.014.104.032.164.061.018.006.036.014.054.022 0 0 .028.012.06.025.021.005.042.011.06.019.066.025.129.057.188.093.007.003.015.006.021.01.012.006.096.054.107.061l-.002.005c.023.009.045.02.067.031.045.023.087.05.127.079.047.024.095.061.132.098.109.077.252.204.392.331.676.703 1.021 1.561 1.021 2.464C22.677 13.252 21.123 14.744 19.206 14.744zM18.857 8.849c-.012.002-.032.005-.053.007-.042.012-.1.019-.144.019-.003 0-.104.024-.106.025-1.109.284-1.887 1.279-1.887 2.421v.014c.048 1.343 1.163 2.41 2.539 2.41 1.375 0 2.491-1.068 2.54-2.433 0-.639-.247-1.251-.695-1.72-.112-.101-.23-.208-.357-.301 0 0-.072-.05-.083-.058-.003-.001-.005-.003-.008-.004-.001 0-.002-.001-.003-.001l-.104-.059c-.044-.016-.086-.039-.126-.068l.001-.005c-.034-.009-.067-.02-.096-.035-.049-.019-.083-.032-.113-.045-.029-.009-.057-.021-.083-.036-.018-.004-.036-.008-.053-.013-.036-.009-.071-.022-.104-.039l-.199-.04c-.016-.003-.031-.007-.046-.012-.008-.002-.017-.003-.024-.006-.017-.002-.115-.02-.132-.024-.004 0-.007-.001-.009-.002-.024-.002-.048-.005-.059-.006l-.463-.001C18.951 8.844 18.907 8.849 18.857 8.849zM19.554 8.848c.01.001.02.001.03.001C19.577 8.849 19.566 8.849 19.554 8.848zM4.681 14.654c-1.655 0-3.001-1.345-3.001-2.999 0-1.655 1.346-3.001 3-3.001s3 1.346 3 3C7.68 13.308 6.334 14.654 4.681 14.654zM4.68 9.654c-1.103 0-2 .898-2 2.001 0 1.102.898 1.999 2.001 1.999 1.102 0 1.999-.897 1.999-2C6.68 10.551 5.783 9.654 4.68 9.654z" fill="#b31212" class="color000 svgShape"></path></svg></g></svg>